<svg width="200" height="160" viewBox="0 0 200 160" fill="none" xmlns="http://www.w3.org/2000/svg">
<g id="person" opacity="0.4">
<path id="Vector" d="M76 28.8C76 41.1717 86.3865 51.2 99.2 51.2V6.40002C86.3865 6.40002 76 16.4284 76 28.8Z" fill="url(#paint0_linear_674_651)"/>
<path id="Vector_2" d="M76.4462 51.2C60.7471 51.2238 48.0235 64.1242 48 80.0414V122.263C48 124.541 49.3311 126.613 51.3825 127.542L94.5882 147.008C96.0367 147.667 97.6105 148 99.2 148V74.2699L76.4462 51.2Z" fill="url(#paint1_linear_674_651)"/>
<path id="Union" fill-rule="evenodd" clip-rule="evenodd" d="M99.4722 6.40002C112.09 6.40002 122.317 16.6275 122.317 29.2449C122.317 41.8622 112.09 52.0897 99.4722 52.0897V6.40002ZM122.317 52.0898C127.663 52.0819 132.898 53.5913 137.426 56.4292V56.437C145.799 61.6333 150.885 70.7917 150.877 80.6497V122.514C150.877 124.778 149.548 126.822 147.481 127.742L104.102 147.017C102.64 147.662 101.068 148 99.4722 148V74.9346L122.317 52.0898Z" fill="url(#paint2_linear_674_651)"/>
<path id="Union_2" fill-rule="evenodd" clip-rule="evenodd" d="M39.5063 43.5209C33.2016 43.5209 28.0839 38.4032 28.0839 32.0985C28.0839 25.7937 33.2016 20.676 39.5063 20.676V43.5209ZM39.5065 20.676C45.8113 20.676 50.929 25.7937 50.929 32.0985C50.929 38.4032 45.8113 43.5209 39.5065 43.5209V20.676ZM28.084 49.2359C21.7793 49.2359 16.6616 54.3536 16.6616 60.6584V89.2424C16.6695 91.2156 17.6836 93.0394 19.3423 94.0928L36.7865 105.004C37.6119 105.5 38.5395 105.783 39.4986 105.83V57.7969L28.0762 49.2281L28.084 49.2359ZM39.5065 57.8048L50.929 49.236V49.2438C55.6064 49.2438 59.8044 52.0975 61.526 56.4369C53.1537 61.6332 48.0675 73.9916 48.0753 83.8496V102.41L42.3602 105.264C41.4797 105.704 40.4892 105.9 39.5065 105.838V57.8048Z" fill="url(#paint3_linear_674_651)"/>
<path id="Union_3" fill-rule="evenodd" clip-rule="evenodd" d="M159.446 43.5209C153.141 43.5209 148.024 38.4032 148.024 32.0985C148.024 25.7937 153.141 20.676 159.446 20.676V43.5209ZM159.446 20.676C165.751 20.676 170.869 25.7937 170.869 32.0985C170.869 38.4032 165.751 43.5209 159.446 43.5209V20.676ZM148.024 49.2359C143.354 49.2359 139.156 52.0896 137.427 56.429C145.799 61.6253 150.885 70.7915 150.877 80.6417V99.5485L156.899 102.544C157.685 102.937 158.558 103.141 159.438 103.141V57.789L148.016 49.2202L148.024 49.2359ZM159.446 57.8048L170.869 49.236V49.2439C177.173 49.2439 182.291 54.3616 182.291 60.6663V88.8809C182.291 91.0506 181.065 93.0238 179.123 93.9907L161.985 102.559C161.199 102.953 160.327 103.157 159.446 103.157V57.8048Z" fill="url(#paint4_linear_674_651)"/>
</g>
<defs>
<linearGradient id="paint0_linear_674_651" x1="87.6" y1="6.40002" x2="87.6" y2="51.2" gradientUnits="userSpaceOnUse">
<stop stop-color="white" stop-opacity="0.3"/>
<stop offset="1" stop-color="white" stop-opacity="0.1"/>
</linearGradient>
<linearGradient id="paint1_linear_674_651" x1="73.6" y1="51.2" x2="73.6" y2="142.4" gradientUnits="userSpaceOnUse">
<stop stop-color="white" stop-opacity="0.3"/>
<stop offset="1" stop-color="white" stop-opacity="0.1"/>
</linearGradient>
<linearGradient id="paint2_linear_674_651" x1="99.2048" y1="91.933" x2="151.089" y2="91.933" gradientUnits="userSpaceOnUse">
<stop stop-color="white" stop-opacity="0.3"/>
<stop offset="1" stop-color="white" stop-opacity="0.1"/>
</linearGradient>
<linearGradient id="paint3_linear_674_651" x1="17.7832" y1="20.676" x2="63.0962" y2="20.676" gradientUnits="userSpaceOnUse">
<stop stop-color="#E7C48B"/>
<stop offset="1" stop-color="#5D4432"/>
</linearGradient>
<linearGradient id="paint4_linear_674_651" x1="138.548" y1="20.676" x2="183.861" y2="20.676" gradientUnits="userSpaceOnUse">
<stop stop-color="#E7C48B"/>
<stop offset="1" stop-color="#5D4432"/>
</linearGradient>
</defs>
</svg>
