<svg width="200" height="160" viewBox="0 0 200 160" fill="none" xmlns="http://www.w3.org/2000/svg">
<g id="goal" opacity="0.4">
<g id="b">
<g id="Group">
<path id="Subtract" fill-rule="evenodd" clip-rule="evenodd" d="M44.1122 24.844C-5.65103 74.5995 29.7839 160 100.111 160C143.848 160 179.302 124.555 179.302 80.8284C179.302 10.5193 93.8754 -24.9067 44.1122 24.844ZM63.6844 44.4895C31.3966 76.7773 54.3879 132.196 100.01 132.196H100.016C128.386 132.196 151.39 109.198 151.39 80.8212C151.39 35.193 95.9658 12.2017 63.6844 44.4895Z" fill="url(#paint0_linear_674_671)"/>
<path id="Vector" d="M100.009 102.976C80.3221 102.976 70.4022 79.0624 84.3324 65.1322C98.2626 51.2019 122.176 61.1219 122.176 80.8083C122.176 93.0508 112.251 102.976 100.009 102.976Z" fill="url(#paint1_linear_674_671)"/>
<path id="Subtract_2" fill-rule="evenodd" clip-rule="evenodd" d="M65.4705 46.2752C34.7706 76.9751 56.6312 129.668 100.009 129.668H100.015C126.991 129.668 148.863 107.801 148.863 80.8201C148.863 37.4359 96.1643 15.5753 65.4705 46.2752ZM82.7317 63.5369C67.3831 78.8855 78.3131 105.234 100.004 105.234C113.493 105.234 124.429 94.2982 124.429 80.8092C124.429 59.1182 98.0804 48.1882 82.7317 63.5369Z" fill="url(#paint2_linear_674_671)"/>
</g>
<path id="Union" fill-rule="evenodd" clip-rule="evenodd" d="M193.094 35.1986L177.532 47.3721L177.532 47.3756L149.612 44.8289C149.515 44.8205 149.421 44.8056 149.328 44.7848L104.514 79.7991C104.122 80.1234 103.632 80.2684 103.15 80.2517L103.147 80.2481C101.171 80.1799 100.391 77.6828 101.928 76.4831L147.016 41.2304C147.314 40.9979 147.62 40.8593 147.921 40.7976L151.196 15.6658L167.72 2.75129C169.228 1.57873 171.419 2.86131 171.097 4.75745L166.931 29.3871L191.964 31.4366C193.877 31.5976 194.599 34.0189 193.094 35.1986Z" fill="url(#paint3_linear_674_671)"/>
</g>
</g>
<defs>
<linearGradient id="paint0_linear_674_671" x1="20.8616" y1="80.8008" x2="179.301" y2="80.8008" gradientUnits="userSpaceOnUse">
<stop stop-color="white" stop-opacity="0.3"/>
<stop offset="1" stop-color="white" stop-opacity="0.1"/>
</linearGradient>
<linearGradient id="paint1_linear_674_671" x1="78.933" y1="58.624" x2="123.729" y2="58.624" gradientUnits="userSpaceOnUse">
<stop stop-color="#E7C48B"/>
<stop offset="1" stop-color="#5D4432"/>
</linearGradient>
<linearGradient id="paint2_linear_674_671" x1="47.7532" y1="80.8054" x2="152.227" y2="80.8054" gradientUnits="userSpaceOnUse">
<stop stop-color="white" stop-opacity="0.3"/>
<stop offset="1" stop-color="white" stop-opacity="0.1"/>
</linearGradient>
<linearGradient id="paint3_linear_674_671" x1="192.673" y1="3.11737" x2="100.619" y2="-0.05838" gradientUnits="userSpaceOnUse">
<stop stop-color="#E7C48B"/>
<stop offset="1" stop-color="#5D4432"/>
</linearGradient>
</defs>
</svg>
