<?xml version="1.0" encoding="utf-8"?>
<!-- Generator: Adobe Illustrator 27.0.1, SVG Export Plug-In . SVG Version: 6.00 Build 0)  -->
<svg version="1.1" id="圖層_1" xmlns="http://www.w3.org/2000/svg" xmlns:xlink="http://www.w3.org/1999/xlink" x="0px" y="0px"
	 viewBox="0 0 240 200" style="enable-background:new 0 0 240 200;" xml:space="preserve">
<g style="opacity:0.4;">
	
		<linearGradient id="SVGID_1_" gradientUnits="userSpaceOnUse" x1="37.9175" y1="182.6546" x2="113.5693" y2="181.9942" gradientTransform="matrix(1 0 0 -1 0 202)">
		<stop  offset="0" style="stop-color:#E7C48B"/>
		<stop  offset="1" style="stop-color:#5D4432"/>
	</linearGradient>
	<path style="fill:url(#SVGID_1_);" d="M110.78,39.31C97.32,30.24,73,18.22,36.29,15.66L36.21,0
		C78.03,8.08,100.05,26.42,110.78,39.31z"/>
	
		<linearGradient id="SVGID_00000183953029816060792280000002194840384419629455_" gradientUnits="userSpaceOnUse" x1="-2.1835" y1="95.2599" x2="117.2098" y2="94.2162" gradientTransform="matrix(1 0 0 -1 0 202)">
		<stop  offset="0" style="stop-color:#FFFFFF;stop-opacity:0.3"/>
		<stop  offset="1" style="stop-color:#FFFFFF;stop-opacity:0.1"/>
	</linearGradient>
	<path style="fill:url(#SVGID_00000183953029816060792280000002194840384419629455_);" d="M118.43,200l1.31-150.4
		c0.01-1.29-0.45-2.51-1.38-3.39C111.1,39.41,75.35,9.98,4.95,15.42c-2.75,0.21-4.81,2.65-4.58,5.4l10.84,132.39
		c0.19,2.33,1.93,4.23,4.22,4.67c13.93,2.74,62.65,13.86,102.99,42.09C118.43,199.98,118.43,199.99,118.43,200L118.43,200z"/>
	
		<linearGradient id="SVGID_00000091702587087601596710000018209368353676261790_" gradientUnits="userSpaceOnUse" x1="131.0701" y1="181.7932" x2="206.7042" y2="181.1328" gradientTransform="matrix(1 0 0 -1 0 202)">
		<stop  offset="0" style="stop-color:#E7C48B"/>
		<stop  offset="1" style="stop-color:#5D4432"/>
	</linearGradient>
	<path style="fill:url(#SVGID_00000091702587087601596710000018209368353676261790_);" d="M204.25,1.57l-0.36,15.66
		c-36.72,1.87-61.23,13.42-74.86,22.23C139.99,26.79,162.32,8.87,204.25,1.57z"/>
	
		<linearGradient id="SVGID_00000097488127777775362320000005848941198020815807_" gradientUnits="userSpaceOnUse" x1="118.6564" y1="94.1384" x2="232.0353" y2="93.1682" gradientTransform="matrix(1 0 0 -1 0 202)">
		<stop  offset="0" style="stop-color:#FFFFFF;stop-opacity:0.3"/>
		<stop  offset="1" style="stop-color:#FFFFFF;stop-opacity:0.1"/>
	</linearGradient>
	<path style="fill:url(#SVGID_00000097488127777775362320000005848941198020815807_);" d="M118.44,200c-0.01,0-0.01-0.01-0.01-0.01
		l1.31-150.39c0.01-1.29,0.49-2.5,1.44-3.36c7.38-6.67,43.65-35.42,113.95-28.67c2.75,0.26,4.76,2.73,4.49,5.48l-13.15,132.18
		c-0.23,2.32-2,4.19-4.3,4.59C208.19,162.31,159.28,172.52,118.44,200C118.45,199.99,118.44,200,118.44,200L118.44,200z"/>
</g>
</svg>
